<?xml version="1.0" encoding="UTF-8" standalone="no"?><svg xmlns="http://www.w3.org/2000/svg" xmlns:xlink="http://www.w3.org/1999/xlink" contentScriptType="application/ecmascript" contentStyleType="text/css" height="482px" preserveAspectRatio="none" style="width:6299px;height:482px;" version="1.1" viewBox="0 0 6299 482" width="6299px" zoomAndPan="magnify"><defs><filter height="300%" id="f1mxrnr3tz08d9" width="300%" x="-1" y="-1"><feGaussianBlur result="blurOut" stdDeviation="2.0"/><feColorMatrix in="blurOut" result="blurOut2" type="matrix" values="0 0 0 0 0 0 0 0 0 0 0 0 0 0 0 0 0 0 .4 0"/><feOffset dx="4.0" dy="4.0" in="blurOut2" result="blurOut3"/><feBlend in="SourceGraphic" in2="blurOut3" mode="normal"/></filter></defs><g><text fill="#000000" font-family="sans-serif" font-size="18" lengthAdjust="spacingAndGlyphs" textLength="441" x="2922.5" y="16.708">TRAVEL MANAGEMENT SYSTEM's Class Diagram</text><text fill="#000000" font-family="sans-serif" font-size="18" lengthAdjust="spacingAndGlyphs" textLength="0" x="3146" y="37.6611"/><!--MD5=[cb0233a4dbc2ea449d09de5932f57591]
cluster com.company--><polygon fill="#FFFFFF" filter="url(#f1mxrnr3tz08d9)" points="16,170.9063,134,170.9063,141,193.2031,6282,193.2031,6282,423.9063,16,423.9063,16,170.9063" style="stroke:#000000;stroke-width:1.5;"/><line style="stroke:#000000;stroke-width:1.5;" x1="16" x2="141" y1="193.2031" y2="193.2031"/><text fill="#000000" font-family="sans-serif" font-size="14" font-weight="bold" lengthAdjust="spacingAndGlyphs" textLength="112" x="20" y="185.9014">com.company</text><!--MD5=[d63c23c2d4b14118d71bd46d55a646bd]
cluster java.awt.event--><polygon fill="#FFFFFF" filter="url(#f1mxrnr3tz08d9)" points="3327,47.9063,3453,47.9063,3460,70.2031,3618,70.2031,3618,146.9063,3327,146.9063,3327,47.9063" style="stroke:#000000;stroke-width:1.5;"/><line style="stroke:#000000;stroke-width:1.5;" x1="3327" x2="3460" y1="70.2031" y2="70.2031"/><text fill="#000000" font-family="sans-serif" font-size="14" font-weight="bold" lengthAdjust="spacingAndGlyphs" textLength="120" x="3331" y="62.9014">java.awt.event</text><!--MD5=[535aab4de90d4dfa371a9b40d5438fc3]
cluster javax.swing--><polygon fill="#FFFFFF" filter="url(#f1mxrnr3tz08d9)" points="3755,47.9063,3856,47.9063,3863,70.2031,3866,70.2031,3866,146.9063,3755,146.9063,3755,47.9063" style="stroke:#000000;stroke-width:1.5;"/><line style="stroke:#000000;stroke-width:1.5;" x1="3755" x2="3863" y1="70.2031" y2="70.2031"/><text fill="#000000" font-family="sans-serif" font-size="14" font-weight="bold" lengthAdjust="spacingAndGlyphs" textLength="95" x="3759" y="62.9014">javax.swing</text><!--MD5=[91ffb62fff14c23d349688501defe63b]
class com.company.AdminLogin--><rect codeLine="4" fill="#FEFECE" filter="url(#f1mxrnr3tz08d9)" height="99.2188" id="com.company.AdminLogin" style="stroke:#A80036;stroke-width:1.5;" width="280" x="3781" y="257.4063"/><ellipse cx="3882.25" cy="273.4063" fill="#ADD1B2" rx="11" ry="11" style="stroke:#A80036;stroke-width:1.0;"/><path d="M3884.5938,269.0781 C3883.6563,268.6406 3883.0625,268.5 3882.1875,268.5 C3879.5625,268.5 3877.5625,270.5781 3877.5625,273.2969 L3877.5625,274.4219 C3877.5625,277 3879.6719,278.8906 3882.5625,278.8906 C3883.7813,278.8906 3884.9375,278.5938 3885.6875,278.0469 C3886.2656,277.6406 3886.5938,277.1875 3886.5938,276.7969 C3886.5938,276.3438 3886.2031,275.9531 3885.7344,275.9531 C3885.5156,275.9531 3885.3125,276.0313 3885.125,276.2188 C3884.6719,276.7031 3884.6719,276.7031 3884.4844,276.7969 C3884.0625,277.0625 3883.375,277.1875 3882.6094,277.1875 C3880.5625,277.1875 3879.2656,276.0938 3879.2656,274.3906 L3879.2656,273.2969 C3879.2656,271.5156 3880.5156,270.2031 3882.25,270.2031 C3882.8281,270.2031 3883.4375,270.3594 3883.9063,270.6094 C3884.3906,270.8906 3884.5625,271.1094 3884.6563,271.5156 C3884.7188,271.9219 3884.75,272.0469 3884.8906,272.1719 C3885.0313,272.3125 3885.2656,272.4219 3885.4844,272.4219 C3885.75,272.4219 3886.0156,272.2813 3886.1875,272.0625 C3886.2969,271.9063 3886.3281,271.7188 3886.3281,271.2969 L3886.3281,269.875 C3886.3281,269.4375 3886.3125,269.3125 3886.2188,269.1563 C3886.0625,268.8906 3885.7813,268.75 3885.4844,268.75 C3885.1875,268.75 3884.9844,268.8438 3884.7656,269.1563 L3884.5938,269.0781 Z " fill="#000000"/><text fill="#000000" font-family="sans-serif" font-size="12" lengthAdjust="spacingAndGlyphs" textLength="69" x="3902.75" y="277.5605">AdminLogin</text><line style="stroke:#A80036;stroke-width:1.5;" x1="3782" x2="4060" y1="289.4063" y2="289.4063"/><text fill="#000000" font-family="sans-serif" font-size="11" lengthAdjust="spacingAndGlyphs" textLength="268" x="3787" y="303.6167">JLabel hkvm, htrip, lbg, lname, lpassword, login;</text><text fill="#000000" font-family="sans-serif" font-size="11" lengthAdjust="spacingAndGlyphs" textLength="150" x="3787" y="316.4214">JPasswordField tfpassword;</text><text fill="#000000" font-family="sans-serif" font-size="11" lengthAdjust="spacingAndGlyphs" textLength="125" x="3787" y="329.2261">JButton home, submit;</text><text fill="#000000" font-family="sans-serif" font-size="11" lengthAdjust="spacingAndGlyphs" textLength="104" x="3787" y="342.0308">JTextField tfname;</text><line style="stroke:#A80036;stroke-width:1.5;" x1="3782" x2="4060" y1="348.625" y2="348.625"/><!--MD5=[c1d4b8461e24e3f18501c0e9bff3064c]
class com.company.Book--><rect codeLine="14" fill="#FEFECE" filter="url(#f1mxrnr3tz08d9)" height="201.6563" id="com.company.Book" style="stroke:#A80036;stroke-width:1.5;" width="1068" x="32" y="205.9063"/><ellipse cx="546.25" cy="221.9063" fill="#ADD1B2" rx="11" ry="11" style="stroke:#A80036;stroke-width:1.0;"/><path d="M548.5938,217.5781 C547.6563,217.1406 547.0625,217 546.1875,217 C543.5625,217 541.5625,219.0781 541.5625,221.7969 L541.5625,222.9219 C541.5625,225.5 543.6719,227.3906 546.5625,227.3906 C547.7813,227.3906 548.9375,227.0938 549.6875,226.5469 C550.2656,226.1406 550.5938,225.6875 550.5938,225.2969 C550.5938,224.8438 550.2031,224.4531 549.7344,224.4531 C549.5156,224.4531 549.3125,224.5313 549.125,224.7188 C548.6719,225.2031 548.6719,225.2031 548.4844,225.2969 C548.0625,225.5625 547.375,225.6875 546.6094,225.6875 C544.5625,225.6875 543.2656,224.5938 543.2656,222.8906 L543.2656,221.7969 C543.2656,220.0156 544.5156,218.7031 546.25,218.7031 C546.8281,218.7031 547.4375,218.8594 547.9063,219.1094 C548.3906,219.3906 548.5625,219.6094 548.6563,220.0156 C548.7188,220.4219 548.75,220.5469 548.8906,220.6719 C549.0313,220.8125 549.2656,220.9219 549.4844,220.9219 C549.75,220.9219 550.0156,220.7813 550.1875,220.5625 C550.2969,220.4063 550.3281,220.2188 550.3281,219.7969 L550.3281,218.375 C550.3281,217.9375 550.3125,217.8125 550.2188,217.6563 C550.0625,217.3906 549.7813,217.25 549.4844,217.25 C549.1875,217.25 548.9844,217.3438 548.7656,217.6563 L548.5938,217.5781 Z " fill="#000000"/><text fill="#000000" font-family="sans-serif" font-size="12" lengthAdjust="spacingAndGlyphs" textLength="31" x="566.75" y="226.0605">Book</text><line style="stroke:#A80036;stroke-width:1.5;" x1="33" x2="1099" y1="237.9063" y2="237.9063"/><text fill="#000000" font-family="sans-serif" font-size="11" lengthAdjust="spacingAndGlyphs" textLength="368" x="38" y="252.1167">JLabel lbg, hkvm, htrip, lname, lpackage, ldeparture, ldestination;</text><text fill="#000000" font-family="sans-serif" font-size="11" lengthAdjust="spacingAndGlyphs" textLength="129" x="38" y="264.9214">JTextField tfname, tfid;</text><text fill="#000000" font-family="sans-serif" font-size="11" lengthAdjust="spacingAndGlyphs" textLength="253" x="38" y="277.7261">JButton home, breceipt, btotal, breset, bexit;</text><text fill="#000000" font-family="sans-serif" font-size="11" lengthAdjust="spacingAndGlyphs" textLength="74" x="38" y="290.5308">JTextArea ta;</text><text fill="#000000" font-family="sans-serif" font-size="11" lengthAdjust="spacingAndGlyphs" textLength="151" x="38" y="303.3354">JCheckBox cti, cel, creturn;</text><text fill="#000000" font-family="sans-serif" font-size="11" lengthAdjust="spacingAndGlyphs" textLength="233" x="38" y="316.1401">JComboBox ID, PACKAGE, DEPART, DEST;</text><text fill="#000000" font-family="sans-serif" font-size="11" lengthAdjust="spacingAndGlyphs" textLength="162" x="38" y="328.9448">int PRICE[] = new int[10000];</text><text fill="#000000" font-family="sans-serif" font-size="11" lengthAdjust="spacingAndGlyphs" textLength="116" x="38" y="341.7495">int iid, idepart, price;</text><text fill="#000000" font-family="sans-serif" font-size="11" lengthAdjust="spacingAndGlyphs" textLength="234" x="38" y="354.5542">Double tempprice, classprice, tempclass;</text><text fill="#000000" font-family="sans-serif" font-size="11" lengthAdjust="spacingAndGlyphs" textLength="1056" x="38" y="367.3589">String oid[] = {"Passport:", "Aadhar:"}, opackage[] = {"business", "first class", "premium economy", "economy"}, odepart[] = {"Mumbai", "Prayagraj"}, odest[] = {"Prayagraj", "Mumbai"};</text><text fill="#000000" font-family="sans-serif" font-size="11" lengthAdjust="spacingAndGlyphs" textLength="166" x="38" y="380.1636">String sdest[], uname, upass;</text><line style="stroke:#A80036;stroke-width:1.5;" x1="33" x2="1099" y1="386.7578" y2="386.7578"/><text fill="#000000" font-family="sans-serif" font-size="11" lengthAdjust="spacingAndGlyphs" textLength="394" x="38" y="400.9683">Color ckvm = new Color(52, 89, 108), ctrip = new Color(238, 40, 102);</text><!--MD5=[d47863b92009b7c78c0e4bee870a1277]
class com.company.CustomerLogin--><rect codeLine="33" fill="#FEFECE" filter="url(#f1mxrnr3tz08d9)" height="112.0234" id="com.company.CustomerLogin" style="stroke:#A80036;stroke-width:1.5;" width="406" x="3340" y="250.9063"/><ellipse cx="3493.75" cy="266.9063" fill="#ADD1B2" rx="11" ry="11" style="stroke:#A80036;stroke-width:1.0;"/><path d="M3496.0938,262.5781 C3495.1563,262.1406 3494.5625,262 3493.6875,262 C3491.0625,262 3489.0625,264.0781 3489.0625,266.7969 L3489.0625,267.9219 C3489.0625,270.5 3491.1719,272.3906 3494.0625,272.3906 C3495.2813,272.3906 3496.4375,272.0938 3497.1875,271.5469 C3497.7656,271.1406 3498.0938,270.6875 3498.0938,270.2969 C3498.0938,269.8438 3497.7031,269.4531 3497.2344,269.4531 C3497.0156,269.4531 3496.8125,269.5313 3496.625,269.7188 C3496.1719,270.2031 3496.1719,270.2031 3495.9844,270.2969 C3495.5625,270.5625 3494.875,270.6875 3494.1094,270.6875 C3492.0625,270.6875 3490.7656,269.5938 3490.7656,267.8906 L3490.7656,266.7969 C3490.7656,265.0156 3492.0156,263.7031 3493.75,263.7031 C3494.3281,263.7031 3494.9375,263.8594 3495.4063,264.1094 C3495.8906,264.3906 3496.0625,264.6094 3496.1563,265.0156 C3496.2188,265.4219 3496.25,265.5469 3496.3906,265.6719 C3496.5313,265.8125 3496.7656,265.9219 3496.9844,265.9219 C3497.25,265.9219 3497.5156,265.7813 3497.6875,265.5625 C3497.7969,265.4063 3497.8281,265.2188 3497.8281,264.7969 L3497.8281,263.375 C3497.8281,262.9375 3497.8125,262.8125 3497.7188,262.6563 C3497.5625,262.3906 3497.2813,262.25 3496.9844,262.25 C3496.6875,262.25 3496.4844,262.3438 3496.2656,262.6563 L3496.0938,262.5781 Z " fill="#000000"/><text fill="#000000" font-family="sans-serif" font-size="12" lengthAdjust="spacingAndGlyphs" textLength="90" x="3514.25" y="271.0605">CustomerLogin</text><line style="stroke:#A80036;stroke-width:1.5;" x1="3341" x2="3745" y1="282.9063" y2="282.9063"/><text fill="#000000" font-family="sans-serif" font-size="11" lengthAdjust="spacingAndGlyphs" textLength="234" x="3346" y="297.1167">JLabel hkvm, htrip, lbg, lname, lpassword;</text><text fill="#000000" font-family="sans-serif" font-size="11" lengthAdjust="spacingAndGlyphs" textLength="204" x="3346" y="309.9214">JButton home, signUp, login, submit;</text><text fill="#000000" font-family="sans-serif" font-size="11" lengthAdjust="spacingAndGlyphs" textLength="104" x="3346" y="322.7261">JTextField tfname;</text><text fill="#000000" font-family="sans-serif" font-size="11" lengthAdjust="spacingAndGlyphs" textLength="150" x="3346" y="335.5308">JPasswordField tfpassword;</text><line style="stroke:#A80036;stroke-width:1.5;" x1="3341" x2="3745" y1="342.125" y2="342.125"/><text fill="#000000" font-family="sans-serif" font-size="11" lengthAdjust="spacingAndGlyphs" textLength="394" x="3346" y="356.3354">Color ckvm = new Color(52, 89, 108), ctrip = new Color(238, 40, 102);</text><!--MD5=[074f24e622fda850f5d0b22f669c913f]
class com.company.CustomerSignUp--><rect codeLine="44" fill="#FEFECE" filter="url(#f1mxrnr3tz08d9)" height="99.2188" id="com.company.CustomerSignUp" style="stroke:#A80036;stroke-width:1.5;" width="406" x="4096" y="257.4063"/><ellipse cx="4244.25" cy="273.4063" fill="#ADD1B2" rx="11" ry="11" style="stroke:#A80036;stroke-width:1.0;"/><path d="M4246.5938,269.0781 C4245.6563,268.6406 4245.0625,268.5 4244.1875,268.5 C4241.5625,268.5 4239.5625,270.5781 4239.5625,273.2969 L4239.5625,274.4219 C4239.5625,277 4241.6719,278.8906 4244.5625,278.8906 C4245.7813,278.8906 4246.9375,278.5938 4247.6875,278.0469 C4248.2656,277.6406 4248.5938,277.1875 4248.5938,276.7969 C4248.5938,276.3438 4248.2031,275.9531 4247.7344,275.9531 C4247.5156,275.9531 4247.3125,276.0313 4247.125,276.2188 C4246.6719,276.7031 4246.6719,276.7031 4246.4844,276.7969 C4246.0625,277.0625 4245.375,277.1875 4244.6094,277.1875 C4242.5625,277.1875 4241.2656,276.0938 4241.2656,274.3906 L4241.2656,273.2969 C4241.2656,271.5156 4242.5156,270.2031 4244.25,270.2031 C4244.8281,270.2031 4245.4375,270.3594 4245.9063,270.6094 C4246.3906,270.8906 4246.5625,271.1094 4246.6563,271.5156 C4246.7188,271.9219 4246.75,272.0469 4246.8906,272.1719 C4247.0313,272.3125 4247.2656,272.4219 4247.4844,272.4219 C4247.75,272.4219 4248.0156,272.2813 4248.1875,272.0625 C4248.2969,271.9063 4248.3281,271.7188 4248.3281,271.2969 L4248.3281,269.875 C4248.3281,269.4375 4248.3125,269.3125 4248.2188,269.1563 C4248.0625,268.8906 4247.7813,268.75 4247.4844,268.75 C4247.1875,268.75 4246.9844,268.8438 4246.7656,269.1563 L4246.5938,269.0781 Z " fill="#000000"/><text fill="#000000" font-family="sans-serif" font-size="12" lengthAdjust="spacingAndGlyphs" textLength="101" x="4264.75" y="277.5605">CustomerSignUp</text><line style="stroke:#A80036;stroke-width:1.5;" x1="4097" x2="4501" y1="289.4063" y2="289.4063"/><text fill="#000000" font-family="sans-serif" font-size="11" lengthAdjust="spacingAndGlyphs" textLength="322" x="4102" y="303.6167">JLabel hkvm, htrip, lbg, lname, lemail, lphone, lpassword;</text><text fill="#000000" font-family="sans-serif" font-size="11" lengthAdjust="spacingAndGlyphs" textLength="204" x="4102" y="316.4214">JButton home, signUp, login, submit;</text><text fill="#000000" font-family="sans-serif" font-size="11" lengthAdjust="spacingAndGlyphs" textLength="270" x="4102" y="329.2261">JTextField tfname, tfemail, tfphone, tfpassword;</text><line style="stroke:#A80036;stroke-width:1.5;" x1="4097" x2="4501" y1="335.8203" y2="335.8203"/><text fill="#000000" font-family="sans-serif" font-size="11" lengthAdjust="spacingAndGlyphs" textLength="394" x="4102" y="350.0308">Color ckvm = new Color(52, 89, 108), ctrip = new Color(238, 40, 102);</text><!--MD5=[b53e021936b852a2369e628a3d278d5a]
class com.company.Home--><rect codeLine="55" fill="#FEFECE" filter="url(#f1mxrnr3tz08d9)" height="86.4141" id="com.company.Home" style="stroke:#A80036;stroke-width:1.5;" width="406" x="2899" y="263.9063"/><ellipse cx="3079.75" cy="279.9063" fill="#ADD1B2" rx="11" ry="11" style="stroke:#A80036;stroke-width:1.0;"/><path d="M3082.0938,275.5781 C3081.1563,275.1406 3080.5625,275 3079.6875,275 C3077.0625,275 3075.0625,277.0781 3075.0625,279.7969 L3075.0625,280.9219 C3075.0625,283.5 3077.1719,285.3906 3080.0625,285.3906 C3081.2813,285.3906 3082.4375,285.0938 3083.1875,284.5469 C3083.7656,284.1406 3084.0938,283.6875 3084.0938,283.2969 C3084.0938,282.8438 3083.7031,282.4531 3083.2344,282.4531 C3083.0156,282.4531 3082.8125,282.5313 3082.625,282.7188 C3082.1719,283.2031 3082.1719,283.2031 3081.9844,283.2969 C3081.5625,283.5625 3080.875,283.6875 3080.1094,283.6875 C3078.0625,283.6875 3076.7656,282.5938 3076.7656,280.8906 L3076.7656,279.7969 C3076.7656,278.0156 3078.0156,276.7031 3079.75,276.7031 C3080.3281,276.7031 3080.9375,276.8594 3081.4063,277.1094 C3081.8906,277.3906 3082.0625,277.6094 3082.1563,278.0156 C3082.2188,278.4219 3082.25,278.5469 3082.3906,278.6719 C3082.5313,278.8125 3082.7656,278.9219 3082.9844,278.9219 C3083.25,278.9219 3083.5156,278.7813 3083.6875,278.5625 C3083.7969,278.4063 3083.8281,278.2188 3083.8281,277.7969 L3083.8281,276.375 C3083.8281,275.9375 3083.8125,275.8125 3083.7188,275.6563 C3083.5625,275.3906 3083.2813,275.25 3082.9844,275.25 C3082.6875,275.25 3082.4844,275.3438 3082.2656,275.6563 L3082.0938,275.5781 Z " fill="#000000"/><text fill="#000000" font-family="sans-serif" font-size="12" lengthAdjust="spacingAndGlyphs" textLength="36" x="3100.25" y="284.0605">Home</text><line style="stroke:#A80036;stroke-width:1.5;" x1="2900" x2="3304" y1="295.9063" y2="295.9063"/><text fill="#000000" font-family="sans-serif" font-size="11" lengthAdjust="spacingAndGlyphs" textLength="210" x="2905" y="310.1167">JLabel lbg, lfooter, lfkvm, hkvm, htrip;</text><text fill="#000000" font-family="sans-serif" font-size="11" lengthAdjust="spacingAndGlyphs" textLength="151" x="2905" y="322.9214">JButton badmin, bis, buser;</text><line style="stroke:#A80036;stroke-width:1.5;" x1="2900" x2="3304" y1="329.5156" y2="329.5156"/><text fill="#000000" font-family="sans-serif" font-size="11" lengthAdjust="spacingAndGlyphs" textLength="394" x="2905" y="343.7261">Color ckvm = new Color(52, 89, 108), ctrip = new Color(238, 40, 102);</text><!--MD5=[7fe1ef8e818d8972471391d10e114eba]
class com.company.InventorySupplierLogin--><rect codeLine="64" fill="#FEFECE" filter="url(#f1mxrnr3tz08d9)" height="112.0234" id="com.company.InventorySupplierLogin" style="stroke:#A80036;stroke-width:1.5;" width="406" x="2458" y="250.9063"/><ellipse cx="2587.75" cy="266.9063" fill="#ADD1B2" rx="11" ry="11" style="stroke:#A80036;stroke-width:1.0;"/><path d="M2590.0938,262.5781 C2589.1563,262.1406 2588.5625,262 2587.6875,262 C2585.0625,262 2583.0625,264.0781 2583.0625,266.7969 L2583.0625,267.9219 C2583.0625,270.5 2585.1719,272.3906 2588.0625,272.3906 C2589.2813,272.3906 2590.4375,272.0938 2591.1875,271.5469 C2591.7656,271.1406 2592.0938,270.6875 2592.0938,270.2969 C2592.0938,269.8438 2591.7031,269.4531 2591.2344,269.4531 C2591.0156,269.4531 2590.8125,269.5313 2590.625,269.7188 C2590.1719,270.2031 2590.1719,270.2031 2589.9844,270.2969 C2589.5625,270.5625 2588.875,270.6875 2588.1094,270.6875 C2586.0625,270.6875 2584.7656,269.5938 2584.7656,267.8906 L2584.7656,266.7969 C2584.7656,265.0156 2586.0156,263.7031 2587.75,263.7031 C2588.3281,263.7031 2588.9375,263.8594 2589.4063,264.1094 C2589.8906,264.3906 2590.0625,264.6094 2590.1563,265.0156 C2590.2188,265.4219 2590.25,265.5469 2590.3906,265.6719 C2590.5313,265.8125 2590.7656,265.9219 2590.9844,265.9219 C2591.25,265.9219 2591.5156,265.7813 2591.6875,265.5625 C2591.7969,265.4063 2591.8281,265.2188 2591.8281,264.7969 L2591.8281,263.375 C2591.8281,262.9375 2591.8125,262.8125 2591.7188,262.6563 C2591.5625,262.3906 2591.2813,262.25 2590.9844,262.25 C2590.6875,262.25 2590.4844,262.3438 2590.2656,262.6563 L2590.0938,262.5781 Z " fill="#000000"/><text fill="#000000" font-family="sans-serif" font-size="12" lengthAdjust="spacingAndGlyphs" textLength="138" x="2608.25" y="271.0605">InventorySupplierLogin</text><line style="stroke:#A80036;stroke-width:1.5;" x1="2459" x2="2863" y1="282.9063" y2="282.9063"/><text fill="#000000" font-family="sans-serif" font-size="11" lengthAdjust="spacingAndGlyphs" textLength="234" x="2464" y="297.1167">JLabel hkvm, htrip, lbg, lname, lpassword;</text><text fill="#000000" font-family="sans-serif" font-size="11" lengthAdjust="spacingAndGlyphs" textLength="204" x="2464" y="309.9214">JButton home, signUp, login, submit;</text><text fill="#000000" font-family="sans-serif" font-size="11" lengthAdjust="spacingAndGlyphs" textLength="104" x="2464" y="322.7261">JTextField tfname;</text><text fill="#000000" font-family="sans-serif" font-size="11" lengthAdjust="spacingAndGlyphs" textLength="150" x="2464" y="335.5308">JPasswordField tfpassword;</text><line style="stroke:#A80036;stroke-width:1.5;" x1="2459" x2="2863" y1="342.125" y2="342.125"/><text fill="#000000" font-family="sans-serif" font-size="11" lengthAdjust="spacingAndGlyphs" textLength="394" x="2464" y="356.3354">Color ckvm = new Color(52, 89, 108), ctrip = new Color(238, 40, 102);</text><!--MD5=[4a2cf34916bbc1022d01c9ee0e65516d]
class com.company.InventorySupplierSignUp--><rect codeLine="76" fill="#FEFECE" filter="url(#f1mxrnr3tz08d9)" height="99.2188" id="com.company.InventorySupplierSignUp" style="stroke:#A80036;stroke-width:1.5;" width="406" x="5419" y="257.4063"/><ellipse cx="5543.25" cy="273.4063" fill="#ADD1B2" rx="11" ry="11" style="stroke:#A80036;stroke-width:1.0;"/><path d="M5545.5938,269.0781 C5544.6563,268.6406 5544.0625,268.5 5543.1875,268.5 C5540.5625,268.5 5538.5625,270.5781 5538.5625,273.2969 L5538.5625,274.4219 C5538.5625,277 5540.6719,278.8906 5543.5625,278.8906 C5544.7813,278.8906 5545.9375,278.5938 5546.6875,278.0469 C5547.2656,277.6406 5547.5938,277.1875 5547.5938,276.7969 C5547.5938,276.3438 5547.2031,275.9531 5546.7344,275.9531 C5546.5156,275.9531 5546.3125,276.0313 5546.125,276.2188 C5545.6719,276.7031 5545.6719,276.7031 5545.4844,276.7969 C5545.0625,277.0625 5544.375,277.1875 5543.6094,277.1875 C5541.5625,277.1875 5540.2656,276.0938 5540.2656,274.3906 L5540.2656,273.2969 C5540.2656,271.5156 5541.5156,270.2031 5543.25,270.2031 C5543.8281,270.2031 5544.4375,270.3594 5544.9063,270.6094 C5545.3906,270.8906 5545.5625,271.1094 5545.6563,271.5156 C5545.7188,271.9219 5545.75,272.0469 5545.8906,272.1719 C5546.0313,272.3125 5546.2656,272.4219 5546.4844,272.4219 C5546.75,272.4219 5547.0156,272.2813 5547.1875,272.0625 C5547.2969,271.9063 5547.3281,271.7188 5547.3281,271.2969 L5547.3281,269.875 C5547.3281,269.4375 5547.3125,269.3125 5547.2188,269.1563 C5547.0625,268.8906 5546.7813,268.75 5546.4844,268.75 C5546.1875,268.75 5545.9844,268.8438 5545.7656,269.1563 L5545.5938,269.0781 Z " fill="#000000"/><text fill="#000000" font-family="sans-serif" font-size="12" lengthAdjust="spacingAndGlyphs" textLength="149" x="5563.75" y="277.5605">InventorySupplierSignUp</text><line style="stroke:#A80036;stroke-width:1.5;" x1="5420" x2="5824" y1="289.4063" y2="289.4063"/><text fill="#000000" font-family="sans-serif" font-size="11" lengthAdjust="spacingAndGlyphs" textLength="322" x="5425" y="303.6167">JLabel hkvm, htrip, lbg, lname, lemail, lphone, lpassword;</text><text fill="#000000" font-family="sans-serif" font-size="11" lengthAdjust="spacingAndGlyphs" textLength="204" x="5425" y="316.4214">JButton home, signUp, login, submit;</text><text fill="#000000" font-family="sans-serif" font-size="11" lengthAdjust="spacingAndGlyphs" textLength="270" x="5425" y="329.2261">JTextField tfname, tfemail, tfphone, tfpassword;</text><line style="stroke:#A80036;stroke-width:1.5;" x1="5420" x2="5824" y1="335.8203" y2="335.8203"/><text fill="#000000" font-family="sans-serif" font-size="11" lengthAdjust="spacingAndGlyphs" textLength="394" x="5425" y="350.0308">Color ckvm = new Color(52, 89, 108), ctrip = new Color(238, 40, 102);</text><!--MD5=[8041634769cb613afecdc2ac7fed1bfa]
class com.company.Splash--><rect codeLine="86" fill="#FEFECE" filter="url(#f1mxrnr3tz08d9)" height="86.4141" id="com.company.Splash" style="stroke:#A80036;stroke-width:1.5;" width="406" x="4978" y="263.9063"/><ellipse cx="5156.75" cy="279.9063" fill="#ADD1B2" rx="11" ry="11" style="stroke:#A80036;stroke-width:1.0;"/><path d="M5159.0938,275.5781 C5158.1563,275.1406 5157.5625,275 5156.6875,275 C5154.0625,275 5152.0625,277.0781 5152.0625,279.7969 L5152.0625,280.9219 C5152.0625,283.5 5154.1719,285.3906 5157.0625,285.3906 C5158.2813,285.3906 5159.4375,285.0938 5160.1875,284.5469 C5160.7656,284.1406 5161.0938,283.6875 5161.0938,283.2969 C5161.0938,282.8438 5160.7031,282.4531 5160.2344,282.4531 C5160.0156,282.4531 5159.8125,282.5313 5159.625,282.7188 C5159.1719,283.2031 5159.1719,283.2031 5158.9844,283.2969 C5158.5625,283.5625 5157.875,283.6875 5157.1094,283.6875 C5155.0625,283.6875 5153.7656,282.5938 5153.7656,280.8906 L5153.7656,279.7969 C5153.7656,278.0156 5155.0156,276.7031 5156.75,276.7031 C5157.3281,276.7031 5157.9375,276.8594 5158.4063,277.1094 C5158.8906,277.3906 5159.0625,277.6094 5159.1563,278.0156 C5159.2188,278.4219 5159.25,278.5469 5159.3906,278.6719 C5159.5313,278.8125 5159.7656,278.9219 5159.9844,278.9219 C5160.25,278.9219 5160.5156,278.7813 5160.6875,278.5625 C5160.7969,278.4063 5160.8281,278.2188 5160.8281,277.7969 L5160.8281,276.375 C5160.8281,275.9375 5160.8125,275.8125 5160.7188,275.6563 C5160.5625,275.3906 5160.2813,275.25 5159.9844,275.25 C5159.6875,275.25 5159.4844,275.3438 5159.2656,275.6563 L5159.0938,275.5781 Z " fill="#000000"/><text fill="#000000" font-family="sans-serif" font-size="12" lengthAdjust="spacingAndGlyphs" textLength="40" x="5177.25" y="284.0605">Splash</text><line style="stroke:#A80036;stroke-width:1.5;" x1="4979" x2="5383" y1="295.9063" y2="295.9063"/><text fill="#000000" font-family="sans-serif" font-size="11" lengthAdjust="spacingAndGlyphs" textLength="191" x="4984" y="310.1167">JLabel lkvm, ltrip, li, lfooter, lfkvm;</text><text fill="#000000" font-family="sans-serif" font-size="11" lengthAdjust="spacingAndGlyphs" textLength="88" x="4984" y="322.9214">JButton bJoinUs;</text><line style="stroke:#A80036;stroke-width:1.5;" x1="4979" x2="5383" y1="329.5156" y2="329.5156"/><text fill="#000000" font-family="sans-serif" font-size="11" lengthAdjust="spacingAndGlyphs" textLength="394" x="4984" y="343.7261">Color ckvm = new Color(52, 89, 108), ctrip = new Color(238, 40, 102);</text><!--MD5=[83a113870fce8f787b31da2eacfaf0cd]
class com.company.admin--><rect codeLine="95" fill="#FEFECE" filter="url(#f1mxrnr3tz08d9)" height="86.4141" id="com.company.admin" style="stroke:#A80036;stroke-width:1.5;" width="406" x="5860" y="263.9063"/><ellipse cx="6040.75" cy="279.9063" fill="#ADD1B2" rx="11" ry="11" style="stroke:#A80036;stroke-width:1.0;"/><path d="M6043.0938,275.5781 C6042.1563,275.1406 6041.5625,275 6040.6875,275 C6038.0625,275 6036.0625,277.0781 6036.0625,279.7969 L6036.0625,280.9219 C6036.0625,283.5 6038.1719,285.3906 6041.0625,285.3906 C6042.2813,285.3906 6043.4375,285.0938 6044.1875,284.5469 C6044.7656,284.1406 6045.0938,283.6875 6045.0938,283.2969 C6045.0938,282.8438 6044.7031,282.4531 6044.2344,282.4531 C6044.0156,282.4531 6043.8125,282.5313 6043.625,282.7188 C6043.1719,283.2031 6043.1719,283.2031 6042.9844,283.2969 C6042.5625,283.5625 6041.875,283.6875 6041.1094,283.6875 C6039.0625,283.6875 6037.7656,282.5938 6037.7656,280.8906 L6037.7656,279.7969 C6037.7656,278.0156 6039.0156,276.7031 6040.75,276.7031 C6041.3281,276.7031 6041.9375,276.8594 6042.4063,277.1094 C6042.8906,277.3906 6043.0625,277.6094 6043.1563,278.0156 C6043.2188,278.4219 6043.25,278.5469 6043.3906,278.6719 C6043.5313,278.8125 6043.7656,278.9219 6043.9844,278.9219 C6044.25,278.9219 6044.5156,278.7813 6044.6875,278.5625 C6044.7969,278.4063 6044.8281,278.2188 6044.8281,277.7969 L6044.8281,276.375 C6044.8281,275.9375 6044.8125,275.8125 6044.7188,275.6563 C6044.5625,275.3906 6044.2813,275.25 6043.9844,275.25 C6043.6875,275.25 6043.4844,275.3438 6043.2656,275.6563 L6043.0938,275.5781 Z " fill="#000000"/><text fill="#000000" font-family="sans-serif" font-size="12" lengthAdjust="spacingAndGlyphs" textLength="36" x="6061.25" y="284.0605">admin</text><line style="stroke:#A80036;stroke-width:1.5;" x1="5861" x2="6265" y1="295.9063" y2="295.9063"/><text fill="#000000" font-family="sans-serif" font-size="11" lengthAdjust="spacingAndGlyphs" textLength="210" x="5866" y="310.1167">JLabel hkvm, htrip, lbg, lfooter, lfkvm;</text><text fill="#000000" font-family="sans-serif" font-size="11" lengthAdjust="spacingAndGlyphs" textLength="172" x="5866" y="322.9214">JButton home, bcustomer, bIS;</text><line style="stroke:#A80036;stroke-width:1.5;" x1="5861" x2="6265" y1="329.5156" y2="329.5156"/><text fill="#000000" font-family="sans-serif" font-size="11" lengthAdjust="spacingAndGlyphs" textLength="394" x="5866" y="343.7261">Color ckvm = new Color(52, 89, 108), ctrip = new Color(238, 40, 102);</text><!--MD5=[f262f61c32af83e088e83a9b7222cf04]
class com.company.conn--><rect codeLine="104" fill="#FEFECE" filter="url(#f1mxrnr3tz08d9)" height="86.4141" id="com.company.conn" style="stroke:#A80036;stroke-width:1.5;" width="405" x="2017.5" y="263.9063"/><ellipse cx="2201.25" cy="279.9063" fill="#ADD1B2" rx="11" ry="11" style="stroke:#A80036;stroke-width:1.0;"/><path d="M2203.5938,275.5781 C2202.6563,275.1406 2202.0625,275 2201.1875,275 C2198.5625,275 2196.5625,277.0781 2196.5625,279.7969 L2196.5625,280.9219 C2196.5625,283.5 2198.6719,285.3906 2201.5625,285.3906 C2202.7813,285.3906 2203.9375,285.0938 2204.6875,284.5469 C2205.2656,284.1406 2205.5938,283.6875 2205.5938,283.2969 C2205.5938,282.8438 2205.2031,282.4531 2204.7344,282.4531 C2204.5156,282.4531 2204.3125,282.5313 2204.125,282.7188 C2203.6719,283.2031 2203.6719,283.2031 2203.4844,283.2969 C2203.0625,283.5625 2202.375,283.6875 2201.6094,283.6875 C2199.5625,283.6875 2198.2656,282.5938 2198.2656,280.8906 L2198.2656,279.7969 C2198.2656,278.0156 2199.5156,276.7031 2201.25,276.7031 C2201.8281,276.7031 2202.4375,276.8594 2202.9063,277.1094 C2203.3906,277.3906 2203.5625,277.6094 2203.6563,278.0156 C2203.7188,278.4219 2203.75,278.5469 2203.8906,278.6719 C2204.0313,278.8125 2204.2656,278.9219 2204.4844,278.9219 C2204.75,278.9219 2205.0156,278.7813 2205.1875,278.5625 C2205.2969,278.4063 2205.3281,278.2188 2205.3281,277.7969 L2205.3281,276.375 C2205.3281,275.9375 2205.3125,275.8125 2205.2188,275.6563 C2205.0625,275.3906 2204.7813,275.25 2204.4844,275.25 C2204.1875,275.25 2203.9844,275.3438 2203.7656,275.6563 L2203.5938,275.5781 Z " fill="#000000"/><text fill="#000000" font-family="sans-serif" font-size="12" lengthAdjust="spacingAndGlyphs" textLength="29" x="2221.75" y="284.0605">conn</text><line style="stroke:#A80036;stroke-width:1.5;" x1="2018.5" x2="2421.5" y1="295.9063" y2="295.9063"/><text fill="#000000" font-family="sans-serif" font-size="11" lengthAdjust="spacingAndGlyphs" textLength="77" x="2023.5" y="310.1167">Connection c;</text><text fill="#000000" font-family="sans-serif" font-size="11" lengthAdjust="spacingAndGlyphs" textLength="74" x="2023.5" y="322.9214">Statement s;</text><text fill="#000000" font-family="sans-serif" font-size="11" lengthAdjust="spacingAndGlyphs" textLength="393" x="2023.5" y="335.7261">String Url = "jdbc:mysql:///kvm?autoReconnect=true&amp;useSSL=false";</text><line style="stroke:#A80036;stroke-width:1.5;" x1="2018.5" x2="2421.5" y1="342.3203" y2="342.3203"/><!--MD5=[76e0d2c2340ae49a53bcdae77d58331f]
class com.company.dcustomer--><rect codeLine="113" fill="#FEFECE" filter="url(#f1mxrnr3tz08d9)" height="124.8281" id="com.company.dcustomer" style="stroke:#A80036;stroke-width:1.5;" width="406" x="1576" y="244.4063"/><ellipse cx="1742.25" cy="260.4063" fill="#ADD1B2" rx="11" ry="11" style="stroke:#A80036;stroke-width:1.0;"/><path d="M1744.5938,256.0781 C1743.6563,255.6406 1743.0625,255.5 1742.1875,255.5 C1739.5625,255.5 1737.5625,257.5781 1737.5625,260.2969 L1737.5625,261.4219 C1737.5625,264 1739.6719,265.8906 1742.5625,265.8906 C1743.7813,265.8906 1744.9375,265.5938 1745.6875,265.0469 C1746.2656,264.6406 1746.5938,264.1875 1746.5938,263.7969 C1746.5938,263.3438 1746.2031,262.9531 1745.7344,262.9531 C1745.5156,262.9531 1745.3125,263.0313 1745.125,263.2188 C1744.6719,263.7031 1744.6719,263.7031 1744.4844,263.7969 C1744.0625,264.0625 1743.375,264.1875 1742.6094,264.1875 C1740.5625,264.1875 1739.2656,263.0938 1739.2656,261.3906 L1739.2656,260.2969 C1739.2656,258.5156 1740.5156,257.2031 1742.25,257.2031 C1742.8281,257.2031 1743.4375,257.3594 1743.9063,257.6094 C1744.3906,257.8906 1744.5625,258.1094 1744.6563,258.5156 C1744.7188,258.9219 1744.75,259.0469 1744.8906,259.1719 C1745.0313,259.3125 1745.2656,259.4219 1745.4844,259.4219 C1745.75,259.4219 1746.0156,259.2813 1746.1875,259.0625 C1746.2969,258.9063 1746.3281,258.7188 1746.3281,258.2969 L1746.3281,256.875 C1746.3281,256.4375 1746.3125,256.3125 1746.2188,256.1563 C1746.0625,255.8906 1745.7813,255.75 1745.4844,255.75 C1745.1875,255.75 1744.9844,255.8438 1744.7656,256.1563 L1744.5938,256.0781 Z " fill="#000000"/><text fill="#000000" font-family="sans-serif" font-size="12" lengthAdjust="spacingAndGlyphs" textLength="65" x="1762.75" y="264.5605">dcustomer</text><line style="stroke:#A80036;stroke-width:1.5;" x1="1577" x2="1981" y1="276.4063" y2="276.4063"/><text fill="#000000" font-family="sans-serif" font-size="11" lengthAdjust="spacingAndGlyphs" textLength="104" x="1582" y="290.6167">JLabel hkvm, htrip;</text><text fill="#000000" font-family="sans-serif" font-size="11" lengthAdjust="spacingAndGlyphs" textLength="104" x="1582" y="303.4214">JTextField lsearch;</text><text fill="#000000" font-family="sans-serif" font-size="11" lengthAdjust="spacingAndGlyphs" textLength="132" x="1582" y="316.2261">JButton home, bsearch;</text><text fill="#000000" font-family="sans-serif" font-size="11" lengthAdjust="spacingAndGlyphs" textLength="71" x="1582" y="329.0308">JTable table;</text><text fill="#000000" font-family="sans-serif" font-size="11" lengthAdjust="spacingAndGlyphs" textLength="99" x="1582" y="341.8354">String value = "";</text><line style="stroke:#A80036;stroke-width:1.5;" x1="1577" x2="1981" y1="348.4297" y2="348.4297"/><text fill="#000000" font-family="sans-serif" font-size="11" lengthAdjust="spacingAndGlyphs" textLength="394" x="1582" y="362.6401">Color ckvm = new Color(52, 89, 108), ctrip = new Color(238, 40, 102);</text><!--MD5=[c2affa38e27d6c6d3566c90e4415f54e]
class com.company.dis--><rect codeLine="125" fill="#FEFECE" filter="url(#f1mxrnr3tz08d9)" height="124.8281" id="com.company.dis" style="stroke:#A80036;stroke-width:1.5;" width="406" x="1135" y="244.4063"/><ellipse cx="1324.75" cy="260.4063" fill="#ADD1B2" rx="11" ry="11" style="stroke:#A80036;stroke-width:1.0;"/><path d="M1327.0938,256.0781 C1326.1563,255.6406 1325.5625,255.5 1324.6875,255.5 C1322.0625,255.5 1320.0625,257.5781 1320.0625,260.2969 L1320.0625,261.4219 C1320.0625,264 1322.1719,265.8906 1325.0625,265.8906 C1326.2813,265.8906 1327.4375,265.5938 1328.1875,265.0469 C1328.7656,264.6406 1329.0938,264.1875 1329.0938,263.7969 C1329.0938,263.3438 1328.7031,262.9531 1328.2344,262.9531 C1328.0156,262.9531 1327.8125,263.0313 1327.625,263.2188 C1327.1719,263.7031 1327.1719,263.7031 1326.9844,263.7969 C1326.5625,264.0625 1325.875,264.1875 1325.1094,264.1875 C1323.0625,264.1875 1321.7656,263.0938 1321.7656,261.3906 L1321.7656,260.2969 C1321.7656,258.5156 1323.0156,257.2031 1324.75,257.2031 C1325.3281,257.2031 1325.9375,257.3594 1326.4063,257.6094 C1326.8906,257.8906 1327.0625,258.1094 1327.1563,258.5156 C1327.2188,258.9219 1327.25,259.0469 1327.3906,259.1719 C1327.5313,259.3125 1327.7656,259.4219 1327.9844,259.4219 C1328.25,259.4219 1328.5156,259.2813 1328.6875,259.0625 C1328.7969,258.9063 1328.8281,258.7188 1328.8281,258.2969 L1328.8281,256.875 C1328.8281,256.4375 1328.8125,256.3125 1328.7188,256.1563 C1328.5625,255.8906 1328.2813,255.75 1327.9844,255.75 C1327.6875,255.75 1327.4844,255.8438 1327.2656,256.1563 L1327.0938,256.0781 Z " fill="#000000"/><text fill="#000000" font-family="sans-serif" font-size="12" lengthAdjust="spacingAndGlyphs" textLength="18" x="1345.25" y="264.5605">dis</text><line style="stroke:#A80036;stroke-width:1.5;" x1="1136" x2="1540" y1="276.4063" y2="276.4063"/><text fill="#000000" font-family="sans-serif" font-size="11" lengthAdjust="spacingAndGlyphs" textLength="104" x="1141" y="290.6167">JLabel hkvm, htrip;</text><text fill="#000000" font-family="sans-serif" font-size="11" lengthAdjust="spacingAndGlyphs" textLength="104" x="1141" y="303.4214">JTextField lsearch;</text><text fill="#000000" font-family="sans-serif" font-size="11" lengthAdjust="spacingAndGlyphs" textLength="132" x="1141" y="316.2261">JButton home, bsearch;</text><text fill="#000000" font-family="sans-serif" font-size="11" lengthAdjust="spacingAndGlyphs" textLength="71" x="1141" y="329.0308">JTable table;</text><text fill="#000000" font-family="sans-serif" font-size="11" lengthAdjust="spacingAndGlyphs" textLength="99" x="1141" y="341.8354">String value = "";</text><line style="stroke:#A80036;stroke-width:1.5;" x1="1136" x2="1540" y1="348.4297" y2="348.4297"/><text fill="#000000" font-family="sans-serif" font-size="11" lengthAdjust="spacingAndGlyphs" textLength="394" x="1141" y="362.6401">Color ckvm = new Color(52, 89, 108), ctrip = new Color(238, 40, 102);</text><!--MD5=[9beeed4ac0f76597af7572fe2068a235]
class com.company.supply--><rect codeLine="137" fill="#FEFECE" filter="url(#f1mxrnr3tz08d9)" height="99.2188" id="com.company.supply" style="stroke:#A80036;stroke-width:1.5;" width="406" x="4537" y="257.4063"/><ellipse cx="4715.75" cy="273.4063" fill="#ADD1B2" rx="11" ry="11" style="stroke:#A80036;stroke-width:1.0;"/><path d="M4718.0938,269.0781 C4717.1563,268.6406 4716.5625,268.5 4715.6875,268.5 C4713.0625,268.5 4711.0625,270.5781 4711.0625,273.2969 L4711.0625,274.4219 C4711.0625,277 4713.1719,278.8906 4716.0625,278.8906 C4717.2813,278.8906 4718.4375,278.5938 4719.1875,278.0469 C4719.7656,277.6406 4720.0938,277.1875 4720.0938,276.7969 C4720.0938,276.3438 4719.7031,275.9531 4719.2344,275.9531 C4719.0156,275.9531 4718.8125,276.0313 4718.625,276.2188 C4718.1719,276.7031 4718.1719,276.7031 4717.9844,276.7969 C4717.5625,277.0625 4716.875,277.1875 4716.1094,277.1875 C4714.0625,277.1875 4712.7656,276.0938 4712.7656,274.3906 L4712.7656,273.2969 C4712.7656,271.5156 4714.0156,270.2031 4715.75,270.2031 C4716.3281,270.2031 4716.9375,270.3594 4717.4063,270.6094 C4717.8906,270.8906 4718.0625,271.1094 4718.1563,271.5156 C4718.2188,271.9219 4718.25,272.0469 4718.3906,272.1719 C4718.5313,272.3125 4718.7656,272.4219 4718.9844,272.4219 C4719.25,272.4219 4719.5156,272.2813 4719.6875,272.0625 C4719.7969,271.9063 4719.8281,271.7188 4719.8281,271.2969 L4719.8281,269.875 C4719.8281,269.4375 4719.8125,269.3125 4719.7188,269.1563 C4719.5625,268.8906 4719.2813,268.75 4718.9844,268.75 C4718.6875,268.75 4718.4844,268.8438 4718.2656,269.1563 L4718.0938,269.0781 Z " fill="#000000"/><text fill="#000000" font-family="sans-serif" font-size="12" lengthAdjust="spacingAndGlyphs" textLength="40" x="4736.25" y="277.5605">supply</text><line style="stroke:#A80036;stroke-width:1.5;" x1="4538" x2="4942" y1="289.4063" y2="289.4063"/><text fill="#000000" font-family="sans-serif" font-size="11" lengthAdjust="spacingAndGlyphs" textLength="328" x="4543" y="303.6167">JLabel hkvm, htrip, lbg, lfooter, lfkvm, lbuck, ldepart, ldest;</text><text fill="#000000" font-family="sans-serif" font-size="11" lengthAdjust="spacingAndGlyphs" textLength="189" x="4543" y="316.4214">JTextField tfdepart, tfdest, tfbuck;</text><text fill="#000000" font-family="sans-serif" font-size="11" lengthAdjust="spacingAndGlyphs" textLength="108" x="4543" y="329.2261">JButton home, add;</text><line style="stroke:#A80036;stroke-width:1.5;" x1="4538" x2="4942" y1="335.8203" y2="335.8203"/><text fill="#000000" font-family="sans-serif" font-size="11" lengthAdjust="spacingAndGlyphs" textLength="394" x="4543" y="350.0308">Color ckvm = new Color(52, 89, 108), ctrip = new Color(238, 40, 102);</text><!--MD5=[6631281fcee7fc541b441b6c950a0fa0]
class java.awt.event.ActionListener--><rect fill="#FEFECE" filter="url(#f1mxrnr3tz08d9)" height="48" id="java.awt.event.ActionListener" style="stroke:#A80036;stroke-width:1.5;" width="117" x="3484.5" y="82.9063"/><ellipse cx="3499.5" cy="98.9063" fill="#ADD1B2" rx="11" ry="11" style="stroke:#A80036;stroke-width:1.0;"/><path d="M3501.8438,94.5781 C3500.9063,94.1406 3500.3125,94 3499.4375,94 C3496.8125,94 3494.8125,96.0781 3494.8125,98.7969 L3494.8125,99.9219 C3494.8125,102.5 3496.9219,104.3906 3499.8125,104.3906 C3501.0313,104.3906 3502.1875,104.0938 3502.9375,103.5469 C3503.5156,103.1406 3503.8438,102.6875 3503.8438,102.2969 C3503.8438,101.8438 3503.4531,101.4531 3502.9844,101.4531 C3502.7656,101.4531 3502.5625,101.5313 3502.375,101.7188 C3501.9219,102.2031 3501.9219,102.2031 3501.7344,102.2969 C3501.3125,102.5625 3500.625,102.6875 3499.8594,102.6875 C3497.8125,102.6875 3496.5156,101.5938 3496.5156,99.8906 L3496.5156,98.7969 C3496.5156,97.0156 3497.7656,95.7031 3499.5,95.7031 C3500.0781,95.7031 3500.6875,95.8594 3501.1563,96.1094 C3501.6406,96.3906 3501.8125,96.6094 3501.9063,97.0156 C3501.9688,97.4219 3502,97.5469 3502.1406,97.6719 C3502.2813,97.8125 3502.5156,97.9219 3502.7344,97.9219 C3503,97.9219 3503.2656,97.7813 3503.4375,97.5625 C3503.5469,97.4063 3503.5781,97.2188 3503.5781,96.7969 L3503.5781,95.375 C3503.5781,94.9375 3503.5625,94.8125 3503.4688,94.6563 C3503.3125,94.3906 3503.0313,94.25 3502.7344,94.25 C3502.4375,94.25 3502.2344,94.3438 3502.0156,94.6563 L3501.8438,94.5781 Z " fill="#000000"/><text fill="#000000" font-family="sans-serif" font-size="12" lengthAdjust="spacingAndGlyphs" textLength="85" x="3513.5" y="103.0605">ActionListener</text><line style="stroke:#A80036;stroke-width:1.5;" x1="3485.5" x2="3600.5" y1="114.9063" y2="114.9063"/><line style="stroke:#A80036;stroke-width:1.5;" x1="3485.5" x2="3600.5" y1="122.9063" y2="122.9063"/><!--MD5=[bcda55842e8758907da38c37dbbc32c8]
class java.awt.event.ItemListener--><rect fill="#FEFECE" filter="url(#f1mxrnr3tz08d9)" height="48" id="java.awt.event.ItemListener" style="stroke:#A80036;stroke-width:1.5;" width="106" x="3343" y="82.9063"/><ellipse cx="3358" cy="98.9063" fill="#ADD1B2" rx="11" ry="11" style="stroke:#A80036;stroke-width:1.0;"/><path d="M3360.3438,94.5781 C3359.4063,94.1406 3358.8125,94 3357.9375,94 C3355.3125,94 3353.3125,96.0781 3353.3125,98.7969 L3353.3125,99.9219 C3353.3125,102.5 3355.4219,104.3906 3358.3125,104.3906 C3359.5313,104.3906 3360.6875,104.0938 3361.4375,103.5469 C3362.0156,103.1406 3362.3438,102.6875 3362.3438,102.2969 C3362.3438,101.8438 3361.9531,101.4531 3361.4844,101.4531 C3361.2656,101.4531 3361.0625,101.5313 3360.875,101.7188 C3360.4219,102.2031 3360.4219,102.2031 3360.2344,102.2969 C3359.8125,102.5625 3359.125,102.6875 3358.3594,102.6875 C3356.3125,102.6875 3355.0156,101.5938 3355.0156,99.8906 L3355.0156,98.7969 C3355.0156,97.0156 3356.2656,95.7031 3358,95.7031 C3358.5781,95.7031 3359.1875,95.8594 3359.6563,96.1094 C3360.1406,96.3906 3360.3125,96.6094 3360.4063,97.0156 C3360.4688,97.4219 3360.5,97.5469 3360.6406,97.6719 C3360.7813,97.8125 3361.0156,97.9219 3361.2344,97.9219 C3361.5,97.9219 3361.7656,97.7813 3361.9375,97.5625 C3362.0469,97.4063 3362.0781,97.2188 3362.0781,96.7969 L3362.0781,95.375 C3362.0781,94.9375 3362.0625,94.8125 3361.9688,94.6563 C3361.8125,94.3906 3361.5313,94.25 3361.2344,94.25 C3360.9375,94.25 3360.7344,94.3438 3360.5156,94.6563 L3360.3438,94.5781 Z " fill="#000000"/><text fill="#000000" font-family="sans-serif" font-size="12" lengthAdjust="spacingAndGlyphs" textLength="74" x="3372" y="103.0605">ItemListener</text><line style="stroke:#A80036;stroke-width:1.5;" x1="3344" x2="3448" y1="114.9063" y2="114.9063"/><line style="stroke:#A80036;stroke-width:1.5;" x1="3344" x2="3448" y1="122.9063" y2="122.9063"/><!--MD5=[18a7562403221f513ca44e0f82c4c17a]
class javax.swing.JFrame--><rect fill="#FEFECE" filter="url(#f1mxrnr3tz08d9)" height="48" id="javax.swing.JFrame" style="stroke:#A80036;stroke-width:1.5;" width="74" x="3773" y="82.9063"/><ellipse cx="3788" cy="98.9063" fill="#ADD1B2" rx="11" ry="11" style="stroke:#A80036;stroke-width:1.0;"/><path d="M3790.3438,94.5781 C3789.4063,94.1406 3788.8125,94 3787.9375,94 C3785.3125,94 3783.3125,96.0781 3783.3125,98.7969 L3783.3125,99.9219 C3783.3125,102.5 3785.4219,104.3906 3788.3125,104.3906 C3789.5313,104.3906 3790.6875,104.0938 3791.4375,103.5469 C3792.0156,103.1406 3792.3438,102.6875 3792.3438,102.2969 C3792.3438,101.8438 3791.9531,101.4531 3791.4844,101.4531 C3791.2656,101.4531 3791.0625,101.5313 3790.875,101.7188 C3790.4219,102.2031 3790.4219,102.2031 3790.2344,102.2969 C3789.8125,102.5625 3789.125,102.6875 3788.3594,102.6875 C3786.3125,102.6875 3785.0156,101.5938 3785.0156,99.8906 L3785.0156,98.7969 C3785.0156,97.0156 3786.2656,95.7031 3788,95.7031 C3788.5781,95.7031 3789.1875,95.8594 3789.6563,96.1094 C3790.1406,96.3906 3790.3125,96.6094 3790.4063,97.0156 C3790.4688,97.4219 3790.5,97.5469 3790.6406,97.6719 C3790.7813,97.8125 3791.0156,97.9219 3791.2344,97.9219 C3791.5,97.9219 3791.7656,97.7813 3791.9375,97.5625 C3792.0469,97.4063 3792.0781,97.2188 3792.0781,96.7969 L3792.0781,95.375 C3792.0781,94.9375 3792.0625,94.8125 3791.9688,94.6563 C3791.8125,94.3906 3791.5313,94.25 3791.2344,94.25 C3790.9375,94.25 3790.7344,94.3438 3790.5156,94.6563 L3790.3438,94.5781 Z " fill="#000000"/><text fill="#000000" font-family="sans-serif" font-size="12" lengthAdjust="spacingAndGlyphs" textLength="42" x="3802" y="103.0605">JFrame</text><line style="stroke:#A80036;stroke-width:1.5;" x1="3774" x2="3846" y1="114.9063" y2="114.9063"/><line style="stroke:#A80036;stroke-width:1.5;" x1="3774" x2="3846" y1="122.9063" y2="122.9063"/><!--MD5=[2079697f25dd59cc60f373d0ee31d1da]
reverse link java.awt.event.ActionListener to com.company.AdminLogin--><path codeLine="147" d="M3621.62,117.7792 C3665.45,125.6083 3719.91,139.3143 3764,162.9063 C3808.53,186.7373 3850.37,226.0153 3879.63,257.3833 " fill="none" id="java.awt.event.ActionListener-backto-com.company.AdminLogin" style="stroke:#A80036;stroke-width:1.0;stroke-dasharray:7.0,7.0;"/><polygon fill="none" points="3620.27,124.6513,3601.68,114.4862,3622.55,110.8392,3620.27,124.6513" style="stroke:#A80036;stroke-width:1.0;"/><!--MD5=[eed1aba92d0f7125f162e37b2ca4635e]
reverse link javax.swing.JFrame to com.company.AdminLogin--><path codeLine="148" d="M3832.96,148.8623 C3850.63,180.3823 3875.1,224.0373 3893.76,257.3212 " fill="none" id="javax.swing.JFrame-backto-com.company.AdminLogin" style="stroke:#A80036;stroke-width:1.0;"/><polygon fill="none" points="3826.62,151.8753,3822.95,131.0073,3838.84,145.0293,3826.62,151.8753" style="stroke:#A80036;stroke-width:1.0;"/><!--MD5=[fee28445a4aefac674b908a0ad3ad6ed]
reverse link java.awt.event.ActionListener to com.company.Book--><path codeLine="149" d="M3497,141.8243 C3487.51,147.2102 3477.27,151.9683 3467,154.9063 C3435.63,163.8793 1150.36,158.7273 1118,162.9063 C1045.59,172.2582 969.09,188.0903 896.864,205.8923 " fill="none" id="java.awt.event.ActionListener-backto-com.company.Book" style="stroke:#A80036;stroke-width:1.0;stroke-dasharray:7.0,7.0;"/><polygon fill="none" points="3493.48,135.7693,3514.13,131.0053,3500.96,147.6053,3493.48,135.7693" style="stroke:#A80036;stroke-width:1.0;"/><!--MD5=[138dfe1baa890585a50fc845ea154eb0]
reverse link java.awt.event.ItemListener to com.company.Book--><path codeLine="150" d="M3322.77,108.6753 C2957.38,112.6483 1340.2,131.8623 1118,162.9063 C1047.29,172.7863 972.601,188.4493 901.797,205.8533 " fill="none" id="java.awt.event.ItemListener-backto-com.company.Book" style="stroke:#A80036;stroke-width:1.0;stroke-dasharray:7.0,7.0;"/><polygon fill="none" points="3322.78,101.6753,3342.85,108.4593,3322.93,115.6742,3322.78,101.6753" style="stroke:#A80036;stroke-width:1.0;"/><!--MD5=[fbf7cac7e406bb58ddd0769e5c1b2045]
reverse link javax.swing.JFrame to com.company.Book--><path codeLine="151" d="M3753.66,125.4353 C3715.74,136.3023 3664.38,149.2362 3618,154.9063 C3480.14,171.7582 1255.75,145.1293 1118,162.9063 C1045.59,172.2513 969.089,188.0793 896.862,205.8803 " fill="none" id="javax.swing.JFrame-backto-com.company.Book" style="stroke:#A80036;stroke-width:1.0;"/><polygon fill="none" points="3751.8,118.6862,3772.96,119.7503,3755.75,132.1162,3751.8,118.6862" style="stroke:#A80036;stroke-width:1.0;"/><!--MD5=[349ef974c411b14bbc225fcb368a905d]
reverse link java.awt.event.ActionListener to com.company.CustomerLogin--><path codeLine="152" d="M3543,151.2242 C3543,180.4823 3543,219.3553 3543,250.8123 " fill="none" id="java.awt.event.ActionListener-backto-com.company.CustomerLogin" style="stroke:#A80036;stroke-width:1.0;stroke-dasharray:7.0,7.0;"/><polygon fill="none" points="3536,151.0073,3543,131.0073,3550,151.0073,3536,151.0073" style="stroke:#A80036;stroke-width:1.0;"/><!--MD5=[3fe069c51670d558000734f23dc59c01]
reverse link javax.swing.JFrame to com.company.CustomerLogin--><path codeLine="153" d="M3762.52,143.1123 C3722.25,172.9823 3663.77,216.3483 3617.29,250.8123 " fill="none" id="javax.swing.JFrame-backto-com.company.CustomerLogin" style="stroke:#A80036;stroke-width:1.0;"/><polygon fill="none" points="3758.61,137.2973,3778.85,131.0073,3766.95,148.5433,3758.61,137.2973" style="stroke:#A80036;stroke-width:1.0;"/><!--MD5=[70005b22155281be7e90b0090f73c300]
reverse link java.awt.event.ActionListener to com.company.CustomerSignUp--><path codeLine="154" d="M3621.03,128.8083 C3661.32,138.6373 3711.45,149.3902 3757,154.9063 C3792.53,159.2093 4044.82,152.3093 4079,162.9063 C4140.57,181.9923 4201.29,223.6683 4243.29,257.1303 " fill="none" id="java.awt.event.ActionListener-backto-com.company.CustomerSignUp" style="stroke:#A80036;stroke-width:1.0;stroke-dasharray:7.0,7.0;"/><polygon fill="none" points="3619.23,135.5743,3601.52,123.9353,3622.62,121.9912,3619.23,135.5743" style="stroke:#A80036;stroke-width:1.0;"/><!--MD5=[b425d969d0a1ad5272b20f6febdabbb1]
reverse link javax.swing.JFrame to com.company.CustomerSignUp--><path codeLine="155" d="M3867.52,113.3653 C3923.25,120.0972 4009.34,134.3523 4079,162.9063 C4136.75,186.5773 4195.69,225.8673 4238.02,257.2793 " fill="none" id="javax.swing.JFrame-backto-com.company.CustomerSignUp" style="stroke:#A80036;stroke-width:1.0;"/><polygon fill="none" points="3866.48,120.2933,3847.39,111.1033,3868.04,106.3802,3866.48,120.2933" style="stroke:#A80036;stroke-width:1.0;"/><!--MD5=[d18926d4eb01ffbdbec0ddb0e249e98b]
reverse link java.awt.event.ActionListener to com.company.Home--><path codeLine="156" d="M3496.01,141.8883 C3486.78,147.1143 3476.88,151.7983 3467,154.9063 C3405.85,174.1352 3383.95,143.0533 3323,162.9063 C3257.82,184.1373 3193.15,229.5833 3150.77,263.5783 " fill="none" id="java.awt.event.ActionListener-backto-com.company.Home" style="stroke:#A80036;stroke-width:1.0;stroke-dasharray:7.0,7.0;"/><polygon fill="none" points="3492.62,135.7563,3513.28,131.0883,3500.04,147.6273,3492.62,135.7563" style="stroke:#A80036;stroke-width:1.0;"/><!--MD5=[3dc7a77e929e6c92f38f7c0c53515f44]
reverse link javax.swing.JFrame to com.company.Home--><path codeLine="157" d="M3753.61,125.0713 C3715.67,135.7833 3664.31,148.6823 3618,154.9063 C3585.5,159.2733 3354.32,153.1943 3323,162.9063 C3257.09,183.3453 3192.04,229.4253 3149.77,263.7863 " fill="none" id="javax.swing.JFrame-backto-com.company.Home" style="stroke:#A80036;stroke-width:1.0;"/><polygon fill="none" points="3751.77,118.3173,3772.93,119.4792,3755.66,131.7652,3751.77,118.3173" style="stroke:#A80036;stroke-width:1.0;"/><!--MD5=[5fa1811bd3c5748bcf9cbdc1caabe8cd]
reverse link java.awt.event.ActionListener to com.company.InventorySupplierLogin--><path codeLine="158" d="M3496.98,141.7393 C3487.49,147.1332 3477.26,151.9153 3467,154.9063 C3404.59,173.1063 2944.22,144.0693 2882,162.9063 C2823.83,180.5193 2766.45,218.4283 2724.74,250.7913 " fill="none" id="java.awt.event.ActionListener-backto-com.company.InventorySupplierLogin" style="stroke:#A80036;stroke-width:1.0;stroke-dasharray:7.0,7.0;"/><polygon fill="none" points="3493.46,135.6853,3514.1,130.9242,3500.93,147.5222,3493.46,135.6853" style="stroke:#A80036;stroke-width:1.0;"/><!--MD5=[81999ec7a3876264db900737c0fd60f1]
reverse link javax.swing.JFrame to com.company.InventorySupplierLogin--><path codeLine="159" d="M3753.64,125.3182 C3715.72,136.1363 3664.36,149.0593 3618,154.9063 C3577.43,160.0233 2921.15,151.1123 2882,162.9063 C2823.8,180.4373 2766.43,218.3503 2724.72,250.7343 " fill="none" id="javax.swing.JFrame-backto-com.company.InventorySupplierLogin" style="stroke:#A80036;stroke-width:1.0;"/><polygon fill="none" points="3751.79,118.5682,3772.95,119.6633,3755.72,132.0032,3751.79,118.5682" style="stroke:#A80036;stroke-width:1.0;"/><!--MD5=[f3cf81f47f96b1ec3c4954b8609a96fd]
reverse link java.awt.event.ActionListener to com.company.InventorySupplierSignUp--><path codeLine="160" d="M3621.41,129.2963 C3661.61,139.1953 3711.56,149.8633 3757,154.9063 C3802.42,159.9463 5358.22,149.8123 5402,162.9063 C5463.97,181.4423 5524.88,223.4123 5566.84,257.1173 " fill="none" id="java.awt.event.ActionListener-backto-com.company.InventorySupplierSignUp" style="stroke:#A80036;stroke-width:1.0;stroke-dasharray:7.0,7.0;"/><polygon fill="none" points="3619.61,136.0612,3601.94,124.3753,3623.04,122.4883,3619.61,136.0612" style="stroke:#A80036;stroke-width:1.0;"/><!--MD5=[9ca544f2312b3397c4cce18cd57e65da]
reverse link javax.swing.JFrame to com.company.InventorySupplierSignUp--><path codeLine="161" d="M3867.28,108.0702 C4134.68,109.0802 5253.53,116.0913 5402,162.9063 C5463.48,182.2913 5524.2,223.9353 5566.23,257.3093 " fill="none" id="javax.swing.JFrame-backto-com.company.InventorySupplierSignUp" style="stroke:#A80036;stroke-width:1.0;"/><polygon fill="none" points="3867.1,115.0702,3847.12,107.9993,3867.15,101.0702,3867.1,115.0702" style="stroke:#A80036;stroke-width:1.0;"/><!--MD5=[af8b074999d9b2362ca5b57786803002]
reverse link java.awt.event.ActionListener to com.company.Splash--><path codeLine="162" d="M3621.42,129.2613 C3661.62,139.1522 3711.56,149.8232 3757,154.9063 C3790.24,158.6253 4928.97,153.2942 4961,162.9063 C5027.1,182.7412 5092.02,229.1813 5134,263.7903 " fill="none" id="java.awt.event.ActionListener-backto-com.company.Splash" style="stroke:#A80036;stroke-width:1.0;stroke-dasharray:7.0,7.0;"/><polygon fill="none" points="3619.62,136.0283,3601.94,124.3463,3623.05,122.4533,3619.62,136.0283" style="stroke:#A80036;stroke-width:1.0;"/><!--MD5=[25c5d87a4b316e0dd8c8bda8a432fd84]
reverse link javax.swing.JFrame to com.company.Splash--><path codeLine="163" d="M3867.29,108.8883 C4085.36,112.8673 4856.54,129.2083 4961,162.9063 C5026.25,183.9553 5090.81,229.6783 5132.95,263.7893 " fill="none" id="javax.swing.JFrame-backto-com.company.Splash" style="stroke:#A80036;stroke-width:1.0;"/><polygon fill="none" points="3866.98,115.8843,3847.11,108.5272,3867.23,101.8863,3866.98,115.8843" style="stroke:#A80036;stroke-width:1.0;"/><!--MD5=[311061ac1c69e9f0e65bb4322f979834]
reverse link java.awt.event.ActionListener to com.company.admin--><path codeLine="164" d="M3621.41,129.3153 C3661.61,139.2203 3711.56,149.8863 3757,154.9063 C3785.8,158.0872 5815.24,154.6183 5843,162.9063 C5909.13,182.6483 5974.04,229.1053 6016.01,263.7442 " fill="none" id="java.awt.event.ActionListener-backto-com.company.admin" style="stroke:#A80036;stroke-width:1.0;stroke-dasharray:7.0,7.0;"/><polygon fill="none" points="3619.61,136.0813,3601.94,124.3913,3623.04,122.5082,3619.61,136.0813" style="stroke:#A80036;stroke-width:1.0;"/><!--MD5=[acea4704dbeae6ed296ebfba0c72ef02]
reverse link javax.swing.JFrame to com.company.admin--><path codeLine="165" d="M3867.61,107.6042 C4178.6,106.2183 5650.19,102.9033 5843,162.9063 C5908.68,183.3463 5973.42,229.4253 6015.48,263.7863 " fill="none" id="javax.swing.JFrame-backto-com.company.admin" style="stroke:#A80036;stroke-width:1.0;"/><polygon fill="none" points="3867.29,114.6053,3847.26,107.6993,3867.22,100.6053,3867.29,114.6053" style="stroke:#A80036;stroke-width:1.0;"/><!--MD5=[257d590725d8ab33d44350ec9993f46c]
reverse link java.awt.event.ActionListener to com.company.dcustomer--><path codeLine="166" d="M3497,141.8073 C3487.51,147.1943 3477.27,151.9573 3467,154.9063 C3388.67,177.4022 2078.1,139.6103 2000,162.9063 C1945.48,179.1692 1891.72,213.4353 1850.87,244.3473 " fill="none" id="java.awt.event.ActionListener-backto-com.company.dcustomer" style="stroke:#A80036;stroke-width:1.0;stroke-dasharray:7.0,7.0;"/><polygon fill="none" points="3493.48,135.7523,3514.12,130.9883,3500.95,147.5883,3493.48,135.7523" style="stroke:#A80036;stroke-width:1.0;"/><!--MD5=[32494745d6a2e104e94c742d8f647d56]
reverse link javax.swing.JFrame to com.company.dcustomer--><path codeLine="167" d="M3753.66,125.4083 C3715.73,136.2643 3664.38,149.1963 3618,154.9063 C3573.39,160.3983 2043.07,150.0703 2000,162.9063 C1945.47,179.1553 1891.71,213.4213 1850.87,244.3373 " fill="none" id="javax.swing.JFrame-backto-com.company.dcustomer" style="stroke:#A80036;stroke-width:1.0;"/><polygon fill="none" points="3751.79,118.6592,3772.96,119.7303,3755.75,132.0903,3751.79,118.6592" style="stroke:#A80036;stroke-width:1.0;"/><!--MD5=[504efef1eedb948493ad5287e476167a]
reverse link java.awt.event.ActionListener to com.company.dis--><path codeLine="168" d="M3497,141.8173 C3487.51,147.2043 3477.27,151.9643 3467,154.9063 C3416.05,169.5032 1609.8,147.7892 1559,162.9063 C1504.47,179.1352 1450.71,213.4003 1409.86,244.3203 " fill="none" id="java.awt.event.ActionListener-backto-com.company.dis" style="stroke:#A80036;stroke-width:1.0;stroke-dasharray:7.0,7.0;"/><polygon fill="none" points="3493.48,135.7633,3514.13,130.9982,3500.96,147.5983,3493.48,135.7633" style="stroke:#A80036;stroke-width:1.0;"/><!--MD5=[6074a48fea9dae7cc80957a663f372f6]
reverse link javax.swing.JFrame to com.company.dis--><path codeLine="169" d="M3753.66,125.4242 C3715.74,136.2872 3664.38,149.2213 3618,154.9063 C3561.23,161.8653 1613.82,146.6013 1559,162.9063 C1504.47,179.1263 1450.7,213.3913 1409.86,244.3143 " fill="none" id="javax.swing.JFrame-backto-com.company.dis" style="stroke:#A80036;stroke-width:1.0;"/><polygon fill="none" points="3751.8,118.6753,3772.96,119.7423,3755.75,132.1053,3751.8,118.6753" style="stroke:#A80036;stroke-width:1.0;"/><!--MD5=[cd7408de0799a104e3ad69cb53d0a997]
reverse link java.awt.event.ActionListener to com.company.supply--><path codeLine="170" d="M3621.42,129.1882 C3661.63,139.0593 3711.57,149.7353 3757,154.9063 C3799.12,159.7002 4479.42,150.6452 4520,162.9063 C4581.92,181.6162 4642.84,223.5673 4684.81,257.2202 " fill="none" id="java.awt.event.ActionListener-backto-com.company.supply" style="stroke:#A80036;stroke-width:1.0;stroke-dasharray:7.0,7.0;"/><polygon fill="none" points="3619.63,135.9552,3601.95,124.2833,3623.05,122.3793,3619.63,135.9552" style="stroke:#A80036;stroke-width:1.0;"/><!--MD5=[540cf3d6b8dfbbe50cd7b41dd592f211]
reverse link javax.swing.JFrame to com.company.supply--><path codeLine="171" d="M3867.59,108.7153 C4014.41,111.3573 4399.6,122.0892 4520,162.9063 C4580.62,183.4552 4640.96,224.5213 4683.08,257.3953 " fill="none" id="javax.swing.JFrame-backto-com.company.supply" style="stroke:#A80036;stroke-width:1.0;"/><polygon fill="none" points="3867.2,115.7093,3847.32,108.3753,3867.44,101.7113,3867.2,115.7093" style="stroke:#A80036;stroke-width:1.0;"/><text fill="#888888" font-family="sans-serif" font-size="10" lengthAdjust="spacingAndGlyphs" textLength="0" x="6286" y="439.1885"/><text fill="#888888" font-family="sans-serif" font-size="10" lengthAdjust="spacingAndGlyphs" textLength="0" x="6286" y="450.8291"/><text fill="#888888" font-family="sans-serif" font-size="10" lengthAdjust="spacingAndGlyphs" textLength="455" x="5831" y="462.4697">PlantUML diagram generated by SketchIt! (https://bitbucket.org/pmesmeur/sketch.it)</text><text fill="#888888" font-family="sans-serif" font-size="10" lengthAdjust="spacingAndGlyphs" textLength="454" x="5832" y="474.1104">For more information about this tool, please contact philippe.mesmeur@gmail.com</text><!--MD5=[a5c2b0c5360c0b2d3c2bbcec6aa51691]
@startuml
title TRAVEL MANAGEMENT SYSTEM's Class Diagram\n

  namespace com.company {
    class com.company.AdminLogin {
    JLabel hkvm, htrip, lbg, lname, lpassword, login;
    JPasswordField tfpassword;
    JButton home, submit;
    JTextField tfname;
    }
  }
  

  namespace com.company {
    class com.company.Book {
     JLabel lbg, hkvm, htrip, lname, lpackage, ldeparture, ldestination;
    JTextField tfname, tfid;
    JButton home, breceipt, btotal, breset, bexit;
    JTextArea ta;
    JCheckBox cti, cel, creturn;
    JComboBox ID, PACKAGE, DEPART, DEST;
    int PRICE[] = new int[10000];
    int iid, idepart, price;
    Double tempprice, classprice, tempclass;
    Color ckvm = new Color(52, 89, 108), ctrip = new Color(238, 40, 102);
    String oid[] = {"Passport:", "Aadhar:"}, opackage[] = {"business", "first class", "premium economy", "economy"}, odepart[] = {"Mumbai", "Prayagraj"}, odest[] = {"Prayagraj", "Mumbai"};
    String sdest[], uname, upass;

    }
  }
  

  namespace com.company {
    class com.company.CustomerLogin {
    JLabel hkvm, htrip, lbg, lname, lpassword;
    JButton home, signUp, login, submit;
    JTextField tfname;
    JPasswordField tfpassword;
    Color ckvm = new Color(52, 89, 108), ctrip = new Color(238, 40, 102);
    }
  }
  

  namespace com.company {
    class com.company.CustomerSignUp {
      JLabel hkvm, htrip, lbg, lname, lemail, lphone, lpassword;
    JButton home, signUp, login, submit;
    JTextField tfname, tfemail, tfphone, tfpassword;
    Color ckvm = new Color(52, 89, 108), ctrip = new Color(238, 40, 102);

    }
  }
  

  namespace com.company {
    class com.company.Home {
     JLabel lbg, lfooter, lfkvm, hkvm, htrip;
    JButton badmin, bis, buser;
    Color ckvm = new Color(52, 89, 108), ctrip = new Color(238, 40, 102);
    }
  }
  

  namespace com.company {
    class com.company.InventorySupplierLogin {
        JLabel hkvm, htrip, lbg, lname, lpassword;
    JButton home, signUp, login, submit;
    JTextField tfname;
    JPasswordField tfpassword;
    Color ckvm = new Color(52, 89, 108), ctrip = new Color(238, 40, 102);

    }
  }
  

  namespace com.company {
    class com.company.InventorySupplierSignUp {
    JLabel hkvm, htrip, lbg, lname, lemail, lphone, lpassword;
    JButton home, signUp, login, submit;
    JTextField tfname, tfemail, tfphone, tfpassword;
    Color ckvm = new Color(52, 89, 108), ctrip = new Color(238, 40, 102);
    }
  }
  

  namespace com.company {
    class com.company.Splash {
     JLabel lkvm, ltrip, li, lfooter, lfkvm;
    JButton bJoinUs;
    Color ckvm = new Color(52, 89, 108), ctrip = new Color(238, 40, 102);
    }
  }
  

  namespace com.company {
    class com.company.admin {
     JLabel hkvm, htrip, lbg, lfooter, lfkvm;
    JButton home, bcustomer, bIS;
    Color ckvm = new Color(52, 89, 108), ctrip = new Color(238, 40, 102);
    }
  }
  

  namespace com.company {
    class com.company.conn {
     Connection c;
    Statement s;
    String Url = "jdbc:mysql:///kvm?autoReconnect=true&useSSL=false";
    }
  }
  

  namespace com.company {
    class com.company.dcustomer {
     JLabel hkvm, htrip;
    JTextField lsearch;
    JButton home, bsearch;
    Color ckvm = new Color(52, 89, 108), ctrip = new Color(238, 40, 102);
    JTable table;
    String value = "";
    }
  }
  

  namespace com.company {
    class com.company.dis {
    JLabel hkvm, htrip;
    JTextField lsearch;
    JButton home, bsearch;
    JTable table;
    Color ckvm = new Color(52, 89, 108), ctrip = new Color(238, 40, 102);
    String value = "";
    }
  }
  

  namespace com.company {
    class com.company.supply {
     JLabel hkvm, htrip, lbg, lfooter, lfkvm, lbuck, ldepart, ldest;
    JTextField tfdepart, tfdest, tfbuck;
    JButton home, add;
    Color ckvm = new Color(52, 89, 108), ctrip = new Color(238, 40, 102);

    }
  }
  

  com.company.AdminLogin .up.|> java.awt.event.ActionListener
  com.company.AdminLogin -up-|> javax.swing.JFrame
  com.company.Book .up.|> java.awt.event.ActionListener
  com.company.Book .up.|> java.awt.event.ItemListener
  com.company.Book -up-|> javax.swing.JFrame
  com.company.CustomerLogin .up.|> java.awt.event.ActionListener
  com.company.CustomerLogin -up-|> javax.swing.JFrame
  com.company.CustomerSignUp .up.|> java.awt.event.ActionListener
  com.company.CustomerSignUp -up-|> javax.swing.JFrame
  com.company.Home .up.|> java.awt.event.ActionListener
  com.company.Home -up-|> javax.swing.JFrame
  com.company.InventorySupplierLogin .up.|> java.awt.event.ActionListener
  com.company.InventorySupplierLogin -up-|> javax.swing.JFrame
  com.company.InventorySupplierSignUp .up.|> java.awt.event.ActionListener
  com.company.InventorySupplierSignUp -up-|> javax.swing.JFrame
  com.company.Splash .up.|> java.awt.event.ActionListener
  com.company.Splash -up-|> javax.swing.JFrame
  com.company.admin .up.|> java.awt.event.ActionListener
  com.company.admin -up-|> javax.swing.JFrame
  com.company.dcustomer .up.|> java.awt.event.ActionListener
  com.company.dcustomer -up-|> javax.swing.JFrame
  com.company.dis .up.|> java.awt.event.ActionListener
  com.company.dis -up-|> javax.swing.JFrame
  com.company.supply .up.|> java.awt.event.ActionListener
  com.company.supply -up-|> javax.swing.JFrame


right footer


PlantUML diagram generated by SketchIt! (https://bitbucket.org/pmesmeur/sketch.it)
For more information about this tool, please contact philippe.mesmeur@gmail.com
endfooter
@enduml

PlantUML version 1.2020.22beta2(Unknown compile time)
(GPL source distribution)
Java Runtime: Java(TM) SE Runtime Environment
JVM: Java HotSpot(TM) 64-Bit Server VM
Default Encoding: UTF-8
Language: en
Country: US
--></g></svg>